<svg height="574" width="720" xmlns="http://www.w3.org/2000/svg">
<rect height="574" fill="#555" width="720"></rect>
<text fill="#7f7" font-family="Courier New" font-size="12" xml:space="preserve">
<tspan x="10" y="26">16 megabytes installed</tspan>
<tspan x="10" y="42"></tspan>
<tspan x="10" y="58">node_modules</tspan>
<tspan x="10" y="74">└─┬ bigrig@1.3.0 </tspan>
<tspan x="10" y="90">  ├─┬ cli-color@1.2.0 </tspan>
<tspan x="10" y="106">  │ ├── ansi-regex@2.1.1 </tspan>
<tspan x="10" y="122">  │ ├── d@1.0.0 </tspan>
<tspan x="10" y="138">  │ ├─┬ es5-ext@0.10.15 </tspan>
<tspan x="10" y="154">  │ │ └── es6-symbol@3.1.1 </tspan>
<tspan x="10" y="170">  │ ├── es6-iterator@2.0.1 </tspan>
<tspan x="10" y="186">  │ ├─┬ memoizee@0.4.4 </tspan>
<tspan x="10" y="202">  │ │ ├── es6-weak-map@2.0.2 </tspan>
<tspan x="10" y="218">  │ │ ├── event-emitter@0.3.5 </tspan>
<tspan x="10" y="234">  │ │ ├── is-promise@2.1.0 </tspan>
<tspan x="10" y="250">  │ │ ├── lru-queue@0.1.0 </tspan>
<tspan x="10" y="266">  │ │ └── next-tick@1.0.0 </tspan>
<tspan x="10" y="282">  │ └── timers-ext@0.1.2 </tspan>
<tspan x="10" y="298">  ├─┬ mkdirp@0.5.1 </tspan>
<tspan x="10" y="314">  │ └── minimist@0.0.8 </tspan>
<tspan x="10" y="330">  └─┬ yargs@3.32.0 </tspan>
<tspan x="10" y="346">    ├── camelcase@2.1.1 </tspan>
<tspan x="10" y="362">    ├─┬ cliui@3.2.0 </tspan>
<tspan x="10" y="378">    │ ├── strip-ansi@3.0.1 </tspan>
<tspan x="10" y="394">    │ └── wrap-ansi@2.1.0 </tspan>
<tspan x="10" y="410">    ├── decamelize@1.2.0 </tspan>
<tspan x="10" y="426">    ├─┬ os-locale@1.4.0 </tspan>
<tspan x="10" y="442">    │ └─┬ lcid@1.0.0 </tspan>
<tspan x="10" y="458">    │   └── invert-kv@1.0.0 </tspan>
<tspan x="10" y="474">    ├─┬ string-width@1.0.2 </tspan>
<tspan x="10" y="490">    │ ├── code-point-at@1.1.0 </tspan>
<tspan x="10" y="506">    │ └─┬ is-fullwidth-code-point@1.0.0 </tspan>
<tspan x="10" y="522">    │   └── number-is-nan@1.0.1 </tspan>
<tspan x="10" y="538">    ├── window-size@0.1.4 </tspan>
<tspan x="10" y="554">    └── y18n@3.2.1</tspan>
</text>
</svg>
